# xmcd
#
# Track frame offsets: 
#        150
#        16220
#        31197
#        46610
#        61192
#        76475
#        90575
#        106307
#        122672
#        137092
#        152130
#        166102
#        181012
#        195390
#        209460
#        224167
#        237677
#        252125
#        266045
#
# Disc length: 3728 seconds
#
# Revision: 5
# Processed by: cddbd v1.5.2PL0 Copyright (c) Steve Scherf et al.
# Submitted via: ExactAudioCopyFreeDBPlugin 1.0
#
DISCID=fd0e8e13
DTITLE=Bessie Smith - Empress of the Blues:  The Complete Recordings [
DTITLE=Columbia-Legacy Roots n' Blues box set]
DYEAR=1991
DGENRE=Blues
TTITLE0=Frankie Blues
TTITLE1=Moonshine Blues
TTITLE2=Lou'siana Low-Down Blues
TTITLE3=Mountain Top Blues
TTITLE4=Work House Blues
TTITLE5=House Rent Blues
TTITLE6=Salt Water Blues
TTITLE7=Rainy Weather Blues
TTITLE8=Weeping Willow Blues
TTITLE9=The Bye Bye Blues
TTITLE10=Sing Sing Prison Blues
TTITLE11=Follow the Deal on Down
TTITLE12=Sinful Blues
TTITLE13=Woman's Trouble Blues
TTITLE14=Love Me Daddy Blues
TTITLE15=Dying Gambler's Blues
TTITLE16=The St. Louis Blues
TTITLE17=Reckless Blues
TTITLE18=Sobbin' Hearted Blues
EXTD=
EXTT0=
EXTT1=
EXTT2=
EXTT3=
EXTT4=
EXTT5=
EXTT6=
EXTT7=
EXTT8=
EXTT9=
EXTT10=
EXTT11=
EXTT12=
EXTT13=
EXTT14=
EXTT15=
EXTT16=
EXTT17=
EXTT18=
PLAYORDER=
